<svg width="23" height="20" viewBox="0 0 23 20" fill="none" xmlns="http://www.w3.org/2000/svg">
<path d="M22.4538 7.9198L19.8077 0.412109H3.19228L0.607666 7.73519V19.4275H22.4538V7.9198ZM3.8692 1.33519H19.1307L21.2846 7.42749H1.71536L3.8692 1.33519ZM21.4692 18.566H1.53074V8.35057H21.5307L21.4692 18.566Z" fill="#111111" stroke="#111111" stroke-width="0.692308" stroke-linejoin="round"/>
<path d="M15.1902 11.0578L15.0976 10.9587C14.8364 10.6794 14.3983 10.6647 14.119 10.9259C14.1158 10.929 14.1125 10.9321 14.1093 10.9352L10.15 14.7845L8.89079 13.5602C8.61665 13.2937 8.17835 13.2998 7.91182 13.574C7.90869 13.5772 7.90559 13.5804 7.90252 13.5837L7.80992 13.6828C7.55236 13.9582 7.56263 14.3891 7.83301 14.652L9.66745 16.4355C9.93615 16.6967 10.3639 16.6967 10.6326 16.4355L15.1671 12.027C15.4375 11.7641 15.4477 11.3332 15.1902 11.0578Z" fill="#111111"/>
<path d="M11.9614 1.48926H11.0383V7.02772H11.9614V1.48926Z" fill="#D8D8D8" stroke="black" stroke-width="0.923077"/>
</svg>
